<?xml version="1.0" standalone="no"?>
<!DOCTYPE svg PUBLIC "-//W3C//DTD SVG 20010904//EN"
 "http://www.w3.org/TR/2001/REC-SVG-20010904/DTD/svg10.dtd">
<svg version="1.0" xmlns="http://www.w3.org/2000/svg"
 width="2000.000000pt" height="780.000000pt" viewBox="0 0 2000.000000 780.000000"
 preserveAspectRatio="xMidYMid meet">
<metadata>
Created by potrace 1.15, written by Peter Selinger 2001-2017
</metadata>
<g transform="translate(0.000000,780.000000) scale(0.100000,-0.100000)"
fill="#000000" stroke="none">
<path d="M10127 6684 c-38 -42 -45 -54 -30 -54 10 -1 34 -9 52 -19 l35 -19
-31 -28 c-16 -16 -43 -37 -58 -48 -24 -16 -27 -23 -22 -59 7 -51 17 -60 50
-48 25 10 24 7 -17 -57 -63 -98 -76 -127 -76 -170 0 -27 6 -45 21 -58 12 -10
30 -37 39 -59 20 -43 16 -122 -11 -271 -22 -125 7 -158 159 -175 48 -5 112
-16 142 -25 61 -18 150 -60 150 -72 0 -5 -39 0 -87 10 -49 10 -120 20 -159 21
-62 2 -75 -1 -112 -26 -67 -44 -102 -100 -102 -161 1 -58 22 -103 65 -138 30
-24 31 -24 237 -23 225 2 245 6 313 60 79 64 106 172 66 262 -11 23 -54 78
-96 122 -43 45 -73 81 -67 81 5 0 34 -11 64 -25 70 -33 96 -32 109 3 15 38 5
131 -19 178 -20 38 -75 95 -157 161 l-40 32 36 1 c62 0 99 59 99 155 0 44 -5
59 -27 86 -26 30 -171 109 -201 109 -11 0 -12 7 -7 28 17 59 14 64 -65 104
-87 45 -109 63 -94 78 15 15 84 -12 152 -60 32 -22 63 -40 70 -40 7 0 12 15
12 39 0 52 -31 83 -126 126 -65 30 -87 35 -148 34 l-71 0 -48 -55z"/>
<path d="M9657 6697 c-95 -40 -127 -70 -134 -125 -7 -53 2 -53 75 -3 46 31
134 71 157 71 3 0 5 -9 5 -21 0 -16 -19 -29 -86 -61 l-87 -40 6 -49 c4 -31 2
-49 -4 -49 -6 0 -45 -14 -87 -31 -127 -50 -162 -100 -143 -204 13 -71 32 -97
77 -111 l37 -10 -44 -34 c-120 -92 -166 -154 -175 -238 -11 -108 23 -133 122
-88 31 14 59 26 62 26 2 0 -31 -38 -76 -84 -89 -93 -110 -125 -118 -188 -10
-71 11 -127 67 -180 73 -69 102 -76 337 -82 l202 -5 31 27 c90 75 74 215 -33
292 -37 27 -48 30 -117 30 -42 -1 -112 -7 -156 -15 -44 -8 -83 -11 -88 -6 -11
11 101 60 165 70 29 6 89 13 133 16 89 8 127 23 151 61 18 26 17 38 -6 229
-14 115 -8 144 40 201 22 25 40 53 40 63 0 33 -23 85 -72 165 -27 43 -42 76
-33 72 8 -3 22 -9 30 -12 10 -4 18 3 25 21 19 50 12 72 -35 111 -24 21 -47 44
-49 51 -6 15 42 43 74 43 18 0 14 9 -31 60 l-52 60 -66 0 c-51 -1 -83 -8 -144
-33z"/>
<path d="M9429 6622 c-24 -16 -91 -68 -149 -116 -58 -48 -125 -99 -150 -113
-47 -27 -110 -81 -110 -95 0 -16 36 -7 73 18 21 14 40 24 43 22 2 -2 -17 -24
-41 -48 -55 -54 -61 -101 -20 -140 23 -22 27 -22 85 -10 33 7 63 10 67 6 11
-10 -38 -55 -71 -65 -17 -5 -55 -13 -85 -16 -158 -20 -202 -213 -80 -352 16
-19 27 -38 24 -41 -4 -4 -43 33 -89 81 -80 85 -83 87 -128 87 -92 0 -133 -67
-127 -203 6 -101 17 -112 115 -120 69 -6 143 -31 130 -44 -3 -3 -47 0 -99 6
-51 7 -101 9 -110 5 -19 -7 -40 -43 -51 -86 -10 -44 -22 -33 -36 32 -7 33 -17
63 -21 66 -15 9 -39 -55 -39 -105 0 -57 13 -99 38 -117 42 -32 224 -4 297 46
104 72 195 91 262 57 30 -16 31 -16 37 6 16 59 6 112 -29 164 -19 29 -35 54
-35 56 0 3 21 0 46 -5 25 -6 48 -8 50 -5 3 2 -7 35 -21 72 -29 79 -33 175 -10
232 9 20 30 55 49 77 49 61 53 72 59 188 8 156 47 228 146 273 l43 19 -7 95
c-4 53 -8 97 -9 98 -2 2 -22 -10 -47 -25z"/>
<path d="M10566 6598 c-4 -29 -9 -72 -12 -95 l-6 -42 56 -31 c96 -55 126 -121
126 -280 0 -96 1 -99 35 -146 61 -87 78 -132 78 -209 -1 -56 -7 -86 -32 -143
-26 -62 -28 -72 -13 -68 9 2 35 7 56 11 l40 7 -26 -34 c-54 -70 -68 -123 -52
-185 6 -21 7 -21 51 -6 62 21 123 12 186 -28 96 -61 155 -87 228 -99 96 -16
143 -4 157 43 25 82 22 136 -11 181 -12 17 -16 12 -32 -53 -11 -39 -22 -71
-26 -71 -4 0 -12 19 -17 43 -19 73 -35 81 -152 73 -55 -4 -100 -5 -100 -2 0
16 66 36 117 36 81 0 99 7 117 45 19 39 20 154 3 205 -17 49 -71 83 -121 77
-33 -5 -53 -19 -120 -86 -45 -45 -85 -81 -89 -81 -14 0 -6 16 28 53 44 47 61
80 70 133 9 57 -10 118 -50 163 -31 35 -42 39 -112 51 -67 10 -82 17 -113 48
-38 39 -31 51 22 33 54 -19 94 -14 117 15 31 40 27 74 -15 115 -58 55 -64 77
-11 40 25 -17 50 -31 56 -31 36 0 -19 66 -94 113 -22 13 -94 72 -160 129 -105
92 -153 128 -168 128 -2 0 -7 -24 -11 -52z"/>
<path d="M8925 6167 c-28 -16 -53 -44 -87 -102 -58 -95 -63 -112 -46 -153 l13
-31 40 14 c45 16 63 36 105 121 35 71 45 113 36 149 -8 30 -11 31 -61 2z"/>
<path d="M11044 6145 c-7 -41 11 -99 58 -183 31 -55 55 -76 99 -87 24 -6 28
-3 38 28 11 32 9 41 -20 98 -62 125 -89 157 -146 173 -19 6 -23 2 -29 -29z"/>
<path d="M9025 5301 c-44 -20 -165 -143 -165 -167 0 -8 -4 -12 -10 -9 -5 3
-10 33 -10 67 0 53 -2 59 -17 53 -94 -38 -131 -46 -189 -39 -34 3 -71 3 -83
-1 -12 -3 -38 -36 -61 -75 -32 -55 -40 -78 -40 -118 0 -46 3 -53 44 -90 61
-56 84 -60 186 -32 129 36 192 36 360 1 201 -43 234 -55 268 -99 16 -20 78
-108 137 -195 59 -87 112 -160 119 -162 87 -23 102 -32 176 -108 73 -74 81
-80 127 -84 44 -4 51 -2 78 27 30 31 30 32 30 148 0 187 -9 226 -62 283 -24
26 -69 65 -99 85 -31 21 -51 40 -46 42 5 1 39 -11 76 -28 37 -16 71 -30 76
-30 17 0 31 126 19 181 -16 72 -82 140 -161 163 -82 23 -181 36 -295 36 -56 0
-114 5 -130 11 -15 5 -57 39 -93 74 -36 35 -78 69 -93 74 -42 16 -97 13 -142
-8z"/>
<path d="M10846 5305 c-22 -7 -64 -39 -95 -69 -73 -72 -110 -87 -193 -79 -87
8 -287 -13 -351 -37 -123 -46 -183 -170 -147 -301 l10 -37 82 34 c44 19 83 33
85 30 2 -2 -24 -24 -59 -49 -35 -24 -82 -65 -104 -89 -37 -40 -42 -52 -53
-122 -25 -169 -11 -303 34 -320 61 -23 144 7 185 67 31 45 86 85 134 98 23 6
48 14 56 18 8 5 71 88 140 185 105 147 132 179 168 197 25 13 115 33 225 51
201 34 220 33 368 -12 91 -28 115 -24 175 32 41 37 44 44 44 90 0 51 -22 106
-68 167 l-25 34 -71 -6 c-71 -6 -82 -4 -203 50 -10 4 -13 -11 -13 -56 0 -34
-4 -61 -10 -61 -5 0 -23 20 -39 44 -43 62 -122 130 -169 144 -49 15 -57 15
-106 -3z"/>
<path d="M8730 4875 c-30 -8 -90 -19 -134 -25 -43 -5 -87 -12 -97 -15 -28 -9
-34 -51 -15 -111 26 -83 90 -124 194 -124 63 0 80 13 88 65 3 25 10 47 14 50
4 2 19 -30 34 -73 65 -185 102 -225 225 -238 62 -6 66 -6 88 20 13 15 23 36
23 47 0 25 17 59 30 59 6 0 10 -47 10 -112 0 -98 3 -120 24 -163 29 -61 58
-90 115 -110 59 -20 87 -19 176 9 41 13 75 22 75 19 0 -2 -14 -24 -30 -48
l-30 -44 60 -22 c57 -20 71 -39 30 -39 -10 0 -83 23 -163 51 -161 56 -196 79
-257 169 -41 60 -77 92 -119 105 -19 6 -31 0 -61 -30 -22 -21 -44 -51 -51 -66
-6 -16 -15 -29 -19 -29 -4 0 -10 31 -13 68 -7 84 -30 145 -68 177 -64 53 -207
105 -291 105 -29 0 -30 -2 -24 -32 11 -55 31 -75 103 -99 94 -31 148 -56 164
-75 13 -16 9 -17 -48 -12 -77 7 -158 44 -217 98 l-46 42 16 -53 c34 -116 74
-175 136 -198 22 -8 29 -7 40 11 14 20 16 18 52 -48 21 -38 52 -86 68 -107 52
-65 140 -96 232 -83 42 7 46 10 52 42 l6 34 30 -62 c60 -127 105 -163 195
-156 29 3 56 7 59 11 4 3 -3 21 -15 40 -39 64 -20 63 77 -3 131 -89 227 -100
350 -39 75 37 116 87 133 163 20 89 -10 146 -76 146 -41 0 -95 34 -160 100
-35 36 -85 74 -120 92 -102 52 -134 85 -205 213 -40 72 -78 127 -98 143 -45
34 -103 39 -179 13 -34 -12 -65 -21 -68 -21 -3 0 8 19 25 42 18 25 27 45 21
51 -5 5 -39 20 -76 33 -85 31 -192 39 -265 19z"/>
<path d="M10990 4844 c-41 -14 -76 -27 -77 -28 -1 -1 11 -22 27 -46 16 -24 28
-46 26 -48 -2 -2 -17 3 -33 11 -48 25 -126 37 -166 26 -45 -12 -94 -67 -146
-161 -60 -110 -99 -150 -193 -198 -48 -25 -110 -68 -147 -103 -68 -63 -128
-96 -173 -97 -57 0 -82 -73 -57 -164 13 -48 87 -129 142 -155 106 -50 205 -36
332 46 95 61 122 62 78 0 -14 -20 -23 -40 -20 -43 14 -14 108 -16 137 -4 39
16 89 74 126 147 l29 58 3 -37 3 -38 84 0 c46 0 96 5 112 11 44 16 110 87 156
167 37 65 43 71 51 53 33 -74 158 53 190 193 l7 28 -43 -35 c-68 -56 -143 -87
-210 -87 -32 0 -58 4 -58 8 0 11 49 33 154 69 82 29 108 52 120 106 6 25 4 27
-27 27 -105 0 -255 -58 -312 -121 -35 -39 -41 -57 -53 -169 l-8 -65 -21 41
c-33 63 -72 104 -97 104 -35 0 -84 -38 -136 -105 -26 -33 -65 -72 -87 -87 -42
-29 -298 -118 -338 -118 -44 0 -34 16 21 35 30 10 57 22 60 27 3 4 -9 28 -26
53 -17 25 -28 45 -25 45 3 0 32 -11 65 -25 73 -31 167 -34 220 -7 48 24 96 91
109 152 6 28 11 89 11 136 0 64 3 85 13 82 6 -3 17 -25 22 -50 16 -74 27 -81
118 -76 127 8 144 28 248 284 l12 29 8 -40 c5 -22 11 -50 14 -62 10 -42 144
-42 208 1 62 41 102 172 60 194 -10 6 -43 13 -73 17 -30 3 -88 15 -128 26
-105 28 -217 25 -312 -7z"/>
<path d="M8555 4208 c46 -152 214 -297 396 -343 100 -25 112 -32 177 -105 69
-77 136 -115 218 -126 60 -7 154 14 382 88 180 58 222 86 222 148 0 22 -4 41
-8 44 -5 3 -24 -11 -43 -31 -77 -81 -172 -99 -351 -68 -67 12 -105 13 -170 6
-133 -15 -185 3 -251 89 l-45 57 -82 7 c-133 11 -180 33 -279 129 -47 47 -106
94 -129 106 l-44 22 7 -23z"/>
<path d="M11375 4183 c-27 -14 -84 -58 -125 -98 -85 -81 -154 -115 -243 -116
-101 -1 -124 -10 -165 -63 -54 -72 -89 -90 -173 -86 -94 4 -211 3 -354 -1
-109 -4 -124 -2 -162 19 -23 12 -60 40 -81 62 -21 22 -41 37 -45 33 -4 -3 -7
-23 -7 -44 0 -30 7 -46 33 -71 27 -28 68 -45 252 -106 191 -63 229 -72 291
-72 94 0 172 38 246 119 62 68 70 72 168 96 156 36 272 107 345 210 35 49 84
147 72 145 -1 -1 -24 -12 -52 -27z"/>
<path d="M8859 3796 c17 -24 59 -70 95 -103 105 -96 228 -144 330 -129 l49 8
-91 49 c-61 33 -104 64 -129 94 -63 76 -160 125 -245 125 l-39 0 30 -44z"/>
<path d="M11015 3816 c-67 -21 -104 -45 -165 -105 -42 -42 -80 -67 -134 -91
-42 -19 -76 -37 -76 -41 0 -13 87 -22 138 -14 84 12 170 61 260 149 46 45 88
89 93 99 9 15 5 17 -33 16 -24 0 -61 -6 -83 -13z"/>
<path d="M10030 3720 c0 -11 16 -37 35 -59 31 -34 46 -42 126 -61 104 -26 111
-39 10 -20 -157 29 -235 -16 -186 -110 28 -55 142 -120 209 -120 18 0 72 14
122 31 49 17 148 48 219 69 l130 37 -60 13 c-74 16 -159 4 -293 -39 -52 -17
-109 -31 -128 -31 -39 0 -100 28 -127 58 -17 19 -17 19 35 6 73 -19 197 -18
226 2 38 26 30 72 -22 123 -38 37 -61 49 -162 82 -65 22 -121 39 -126 39 -4 0
-8 -9 -8 -20z"/>
<path d="M9910 3719 c-14 -4 -71 -22 -128 -39 -85 -25 -112 -39 -148 -72 -53
-49 -61 -97 -20 -123 36 -24 121 -29 199 -13 37 8 67 11 67 7 0 -18 -90 -60
-128 -61 -22 0 -87 16 -145 36 -116 40 -203 53 -293 41 l-59 -7 111 -34 c61
-18 158 -51 215 -74 127 -49 181 -52 257 -14 62 31 122 97 122 134 0 59 -75
88 -179 69 -38 -6 -74 -9 -82 -7 -15 6 -2 10 94 28 66 13 113 47 134 98 8 19
13 35 11 37 -2 1 -14 -1 -28 -6z"/>
<path d="M7609 3044 c-99 -41 -63 -184 46 -184 14 0 39 13 56 28 26 23 32 36
32 71 0 74 -63 114 -134 85z"/>
<path d="M9893 3053 c-10 -3 -13 -64 -13 -256 l0 -251 -36 37 c-20 20 -66 52
-103 70 -64 31 -70 32 -191 32 -123 0 -126 -1 -200 -36 -164 -80 -250 -223
-250 -418 0 -195 87 -342 250 -420 74 -35 77 -36 200 -36 120 0 127 1 190 32
36 17 81 47 100 67 l35 34 5 -61 5 -62 68 -3 67 -3 0 634 c0 709 7 648 -73
646 -23 0 -48 -3 -54 -6z m-237 -499 c146 -42 231 -176 222 -347 -5 -92 -28
-150 -83 -214 -81 -95 -250 -127 -366 -71 -72 36 -125 89 -157 158 -22 47 -26
69 -26 150 0 134 41 220 133 280 96 61 176 74 277 44z"/>
<path d="M12065 3048 c-3 -7 -6 -122 -7 -255 l-3 -242 -43 39 c-70 64 -142 92
-247 98 -108 5 -178 -8 -262 -50 -169 -84 -260 -293 -219 -501 20 -103 59
-180 121 -242 91 -92 205 -131 360 -123 105 6 182 36 252 101 l43 40 0 -67 0
-66 70 0 70 0 0 634 c0 713 8 646 -81 646 -31 0 -51 -5 -54 -12z m-247 -490
c26 -6 58 -18 72 -26 43 -27 111 -96 130 -133 30 -57 42 -157 30 -235 -13 -80
-29 -112 -83 -171 -135 -147 -377 -131 -489 32 -81 119 -78 309 7 420 76 100
207 145 333 113z"/>
<path d="M16063 3048 c-68 -18 -87 -106 -34 -159 40 -40 88 -40 130 0 77 72 7
187 -96 159z"/>
<path d="M13261 2988 c-240 -29 -373 -161 -359 -356 6 -79 30 -132 85 -183 61
-59 129 -87 328 -140 61 -16 121 -32 135 -36 34 -9 110 -51 137 -76 54 -49 54
-152 1 -213 -37 -42 -85 -68 -156 -83 -147 -31 -338 12 -453 101 -20 15 -42
28 -48 28 -6 0 -23 -23 -37 -52 l-27 -52 37 -32 c114 -99 339 -150 529 -121
226 35 341 148 339 336 -1 78 -19 127 -69 182 -56 62 -116 89 -313 140 -295
77 -346 115 -338 246 4 57 7 67 43 103 57 59 123 80 246 80 112 0 180 -15 273
-62 57 -29 60 -29 73 -12 8 10 19 35 25 56 15 50 5 60 -90 97 -127 48 -240 63
-361 49z"/>
<path d="M1250 2380 l0 -600 403 2 402 3 3 34 c2 19 1 44 -2 57 l-6 24 -330 0
-330 0 0 540 0 540 -70 0 -70 0 0 -600z"/>
<path d="M2410 2965 c0 -8 19 -45 43 -83 23 -37 47 -77 54 -88 29 -48 190
-310 208 -340 11 -18 53 -86 93 -151 l72 -119 0 -202 0 -202 70 0 70 0 0 209
c0 120 4 212 9 216 6 3 16 18 24 33 20 38 265 441 288 474 11 14 19 29 19 33
0 3 13 25 29 48 33 49 111 177 111 183 0 2 -34 4 -75 4 l-74 0 -73 -121 c-40
-66 -82 -135 -93 -153 -11 -18 -64 -104 -117 -192 -54 -87 -101 -165 -106
-172 -8 -12 -47 41 -98 133 -6 11 -53 88 -104 170 -51 83 -102 166 -114 186
-11 19 -37 61 -56 92 l-35 57 -72 0 c-58 0 -73 -3 -73 -15z"/>
<path d="M3970 2380 l0 -600 75 0 75 0 0 158 0 157 114 114 113 113 45 -48
c25 -27 58 -65 74 -84 15 -19 48 -58 74 -85 25 -28 56 -64 70 -80 14 -17 67
-78 118 -137 l93 -108 85 0 c46 0 84 4 84 8 0 7 -42 60 -114 142 -12 14 -69
81 -126 150 -58 69 -119 141 -136 160 -17 19 -61 71 -97 114 l-66 79 209 221
c114 122 229 241 254 266 25 24 46 48 46 52 0 4 -38 8 -84 8 l-85 0 -333 -347
-333 -346 -3 346 -2 347 -75 0 -75 0 0 -600z"/>
<path d="M5980 2380 l0 -600 70 0 70 0 2 453 3 452 44 -75 c24 -41 64 -108 89
-149 24 -41 52 -88 62 -105 9 -17 54 -94 100 -171 46 -77 94 -160 108 -185 36
-66 41 -70 83 -70 37 0 39 2 90 88 29 48 63 107 77 132 14 25 42 74 64 109 21
34 38 64 38 66 0 2 28 50 61 107 34 56 71 119 82 138 10 19 31 55 46 80 l26
45 3 -457 2 -458 70 0 70 0 0 600 0 600 -63 0 -62 0 -32 -52 c-17 -29 -40 -69
-51 -89 -11 -20 -39 -67 -61 -104 -23 -37 -41 -69 -41 -71 0 -2 -28 -50 -61
-106 -34 -57 -72 -121 -84 -143 -44 -78 -81 -142 -125 -219 l-45 -77 -22 28
c-13 15 -23 31 -23 34 0 4 -31 59 -70 123 -38 65 -70 120 -70 122 0 3 -13 25
-30 49 -16 24 -30 46 -30 49 0 3 -31 57 -70 121 -38 64 -70 118 -70 120 0 2
-24 44 -53 93 -30 49 -57 97 -60 106 -5 12 -20 16 -72 16 l-65 0 0 -600z"/>
<path d="M17530 2785 l0 -95 -80 0 -80 0 0 -60 0 -59 78 -3 77 -3 5 -320 c5
-346 5 -341 64 -403 52 -55 88 -67 206 -67 97 0 109 2 152 28 l47 27 -15 33
c-8 17 -17 40 -21 50 -7 22 -20 22 -68 -3 -80 -41 -174 -17 -212 52 -16 30
-18 63 -18 318 l0 285 138 3 138 3 -3 57 -3 57 -137 3 -138 3 0 94 0 95 -65 0
-65 0 0 -95z"/>
<path d="M7587 2684 c-4 -4 -7 -209 -7 -456 l0 -448 70 0 70 0 -2 453 -3 452
-60 3 c-34 2 -64 0 -68 -4z"/>
<path d="M8040 2235 l0 -455 65 0 65 0 0 231 c0 268 10 349 54 422 39 64 93
102 175 123 54 13 74 14 125 4 78 -15 129 -44 159 -89 47 -72 50 -91 55 -398
l4 -293 69 0 69 0 0 279 c0 367 -17 451 -108 537 -64 60 -130 86 -236 92 -145
7 -243 -22 -323 -95 l-42 -39 -3 65 -3 66 -62 3 -63 3 0 -456z"/>
<path d="M10579 2681 c-100 -20 -219 -111 -272 -209 -76 -139 -77 -333 -2
-470 56 -103 117 -157 230 -203 53 -21 75 -24 195 -24 131 1 137 2 205 33 67
32 145 94 145 117 0 6 -18 28 -40 50 l-40 39 -27 -25 c-15 -13 -30 -27 -33
-30 -11 -13 -78 -43 -125 -55 -186 -50 -380 63 -420 244 l-7 32 371 0 371 0 1
23 c3 58 -4 136 -16 180 -43 148 -162 263 -306 296 -49 12 -175 12 -230 2z
m253 -144 c68 -34 121 -93 149 -169 10 -29 19 -58 19 -65 0 -10 -66 -13 -305
-13 l-304 0 5 33 c17 92 99 192 189 227 73 29 172 24 247 -13z"/>
<path d="M14260 2681 c-155 -34 -282 -154 -324 -305 -37 -131 -28 -247 29
-361 52 -104 112 -162 222 -212 54 -25 68 -27 193 -27 133 -1 136 0 203 33
164 81 257 233 257 421 0 187 -96 344 -258 421 -59 29 -76 32 -176 35 -61 2
-127 0 -146 -5z m198 -123 c65 -16 90 -31 144 -84 63 -62 90 -133 91 -239 1
-107 -22 -174 -82 -238 -91 -98 -205 -127 -343 -87 -49 14 -115 65 -150 115
-81 119 -78 309 7 420 76 100 207 145 333 113z"/>
<path d="M15322 2680 c-66 -14 -152 -60 -205 -109 -178 -165 -185 -486 -15
-667 165 -175 510 -182 662 -13 20 21 36 47 36 57 0 15 -74 72 -94 72 -4 0
-18 -13 -32 -29 -66 -79 -195 -118 -299 -90 -104 27 -181 88 -224 179 -22 47
-26 68 -26 150 0 81 4 103 26 151 48 103 149 174 263 186 93 10 205 -32 259
-97 14 -16 30 -30 36 -30 20 0 90 55 91 71 0 31 -77 105 -146 139 -62 30 -76
33 -178 36 -61 2 -130 -1 -154 -6z"/>
<path d="M16025 2668 c-3 -13 -4 -216 -3 -453 l3 -430 68 -3 67 -3 0 456 0
455 -65 0 c-59 0 -65 -2 -70 -22z"/>
<path d="M16720 2681 c-176 -38 -311 -207 -326 -405 -12 -152 27 -266 123
-368 85 -90 173 -129 307 -135 118 -6 198 7 273 43 55 27 123 87 123 108 0 7
-18 30 -40 51 l-40 39 -32 -31 c-73 -71 -217 -109 -315 -83 -68 17 -128 48
-167 86 -34 33 -79 115 -92 166 l-6 28 373 2 374 3 3 45 c12 167 -95 349 -247
422 -57 27 -76 31 -170 34 -58 2 -122 0 -141 -5z m226 -132 c92 -35 172 -128
189 -222 l7 -37 -307 0 c-287 0 -306 1 -301 18 3 9 8 31 12 47 17 73 101 165
179 195 67 26 150 25 221 -1z"/>
<path d="M18015 2680 c-3 -5 13 -48 35 -96 22 -47 40 -88 40 -90 0 -3 18 -42
40 -89 22 -47 40 -87 40 -89 0 -2 20 -46 43 -98 108 -232 187 -415 187 -433 0
-24 -47 -121 -76 -157 -32 -40 -84 -68 -129 -68 -40 0 -137 38 -149 59 -10 16
-23 6 -51 -40 -30 -46 -31 -57 -7 -76 48 -38 100 -56 178 -60 164 -10 242 43
329 222 30 61 55 114 55 117 0 4 20 49 45 102 25 53 45 99 45 101 0 2 16 39
36 82 73 157 94 204 94 207 0 2 18 43 40 90 22 47 40 87 40 90 0 2 20 47 44
99 62 131 62 131 2 135 -76 5 -89 -2 -110 -55 -11 -26 -37 -85 -58 -131 -21
-46 -38 -85 -38 -87 0 -2 -18 -43 -40 -90 -22 -47 -40 -88 -40 -90 0 -2 -13
-32 -29 -67 -16 -35 -42 -94 -59 -133 -27 -62 -52 -94 -52 -66 0 5 -18 49 -40
96 -22 47 -40 88 -40 90 0 2 -16 38 -35 79 -19 42 -35 78 -35 80 0 2 -18 43
-40 90 -22 47 -40 87 -40 90 0 2 -20 47 -45 100 l-45 96 -64 0 c-36 0 -67 -4
-71 -10z"/>
<path d="M2227 1946 c-71 -66 -30 -176 67 -176 37 0 48 5 70 31 58 68 15 169
-72 169 -27 0 -47 -7 -65 -24z"/>
<path d="M3539 1941 c-46 -46 -36 -135 18 -160 31 -14 78 -14 105 0 29 16 50
73 42 115 -13 72 -111 98 -165 45z"/>
<path d="M5123 1958 c-30 -15 -56 -72 -48 -108 10 -48 51 -80 100 -80 63 0 87
24 93 92 4 51 2 56 -28 81 -34 29 -77 34 -117 15z"/>
</g>
</svg>
