<?xml version="1.0" standalone="no"?>
<!DOCTYPE svg PUBLIC "-//W3C//DTD SVG 20010904//EN"
 "http://www.w3.org/TR/2001/REC-SVG-20010904/DTD/svg10.dtd">
<svg version="1.0" xmlns="http://www.w3.org/2000/svg"
 width="2000.000000pt" height="1023.000000pt" viewBox="0 0 2000.000000 1023.000000"
 preserveAspectRatio="xMidYMid meet">
<metadata>
Created by potrace 1.15, written by Peter Selinger 2001-2017
</metadata>
<g transform="translate(0.000000,1023.000000) scale(0.100000,-0.100000)"
fill="#000000" stroke="none">
<path d="M9864 8820 c-174 -56 -339 -228 -474 -495 l-56 -110 -80 28 c-149 54
-287 80 -424 81 -76 1 -146 -4 -180 -13 -266 -66 -400 -297 -361 -621 14 -108
49 -255 84 -350 l25 -64 -91 -44 c-189 -89 -371 -232 -451 -353 -73 -111 -102
-244 -77 -359 41 -190 240 -390 527 -529 l90 -43 -37 -112 c-53 -157 -73 -269
-73 -411 0 -134 15 -200 67 -298 48 -91 147 -170 257 -206 146 -47 398 -26
631 53 l95 33 48 -98 c126 -256 303 -447 470 -503 182 -62 353 -10 521 158
101 101 170 200 241 345 l48 98 95 -33 c249 -84 501 -101 655 -43 296 110 380
447 227 905 l-37 112 90 43 c143 69 283 168 372 262 124 130 172 248 161 392
-16 217 -190 412 -513 576 l-111 56 19 49 c33 87 77 266 89 364 38 324 -95
555 -361 621 -140 35 -384 9 -594 -64 l-92 -33 -46 96 c-94 196 -230 367 -360
450 -120 78 -266 100 -394 60z m280 -164 c70 -34 174 -134 236 -226 25 -36 68
-112 97 -169 l52 -105 -132 -69 c-73 -38 -192 -107 -264 -154 l-133 -84 -132
84 c-73 47 -192 116 -265 154 l-132 69 52 105 c111 220 232 357 364 410 73 29
180 23 257 -15z m-1164 -491 c81 -14 260 -66 288 -84 11 -7 7 -29 -21 -117
-40 -124 -78 -269 -102 -396 l-17 -87 -42 -6 c-116 -18 -443 -104 -537 -140
-13 -5 -23 14 -52 102 -54 164 -70 258 -65 382 3 86 9 116 30 162 45 98 106
151 213 185 55 17 203 17 305 -1z m2398 -19 c73 -34 124 -86 160 -165 21 -46
27 -75 30 -162 5 -124 -11 -218 -65 -382 -29 -88 -39 -107 -52 -102 -94 36
-421 122 -537 140 l-42 6 -17 87 c-24 127 -62 272 -102 396 -28 88 -32 110
-21 117 25 16 204 70 278 84 44 8 123 13 190 12 103 -2 122 -6 178 -31z
m-1823 -202 c141 -79 305 -183 305 -194 0 -5 -19 -23 -42 -41 -24 -18 -79 -63
-123 -100 l-80 -67 -118 -11 c-64 -6 -138 -14 -164 -18 l-46 -6 7 44 c15 97
102 414 123 452 7 12 15 9 138 -59z m1058 -30 c32 -101 83 -297 93 -363 l7
-44 -48 6 c-26 4 -100 12 -163 18 l-116 11 -81 67 c-44 37 -99 82 -122 100
-24 18 -43 36 -43 41 0 20 413 264 435 257 5 -2 22 -44 38 -93z m-543 -309
l74 -55 -143 0 -143 0 69 55 c37 29 68 54 69 55 0 0 34 -25 74 -55z m141 -202
l123 -6 227 -227 226 -226 6 -168 c3 -93 3 -240 0 -328 l-6 -160 -115 -124
c-63 -69 -168 -174 -234 -234 l-118 -109 -162 -3 c-90 -2 -234 -2 -320 0
l-158 3 -124 114 c-68 63 -173 168 -233 234 l-110 119 -6 160 c-4 88 -4 235 0
328 l6 168 228 228 227 227 89 4 c184 7 334 7 454 0z m-1115 -140 c-4 -32 -11
-105 -17 -162 l-10 -104 -67 -81 c-38 -45 -83 -100 -101 -124 -18 -24 -38 -41
-43 -40 -24 8 -269 431 -256 443 17 16 428 123 477 124 23 1 24 -1 17 -56z
m1947 32 c95 -21 346 -93 356 -101 9 -8 -191 -362 -243 -429 -19 -23 -6 -35
-143 132 l-82 101 -10 103 c-6 57 -13 130 -17 162 -8 69 -14 67 139 32z
m-2435 -440 c19 -33 62 -99 94 -147 32 -48 58 -91 58 -96 0 -4 -30 -53 -66
-108 -70 -106 -152 -248 -205 -356 l-33 -66 -100 50 c-231 116 -368 240 -421
380 -26 69 -18 166 19 242 57 116 225 255 418 346 l82 38 59 -111 c32 -62 75
-139 95 -172z m3057 228 c98 -49 221 -137 286 -203 211 -215 163 -444 -136
-651 -27 -19 -99 -59 -160 -91 l-109 -56 -69 130 c-54 105 -176 305 -232 384
-7 9 -6 20 1 31 136 211 189 300 239 395 l59 115 36 -15 c19 -8 58 -26 85 -39z
m-2607 -539 l-3 -67 -47 61 c-27 33 -48 66 -48 72 0 6 21 39 48 73 l47 62 3
-67 c2 -38 2 -98 0 -134z m1936 137 c25 -33 46 -65 46 -71 0 -11 -89 -130 -96
-130 -2 0 -4 59 -4 130 0 72 2 130 4 130 3 0 25 -27 50 -59z m-1963 -411 c37
-43 39 -50 48 -150 6 -58 13 -131 17 -162 5 -46 4 -58 -7 -58 -51 0 -464 112
-483 130 -10 10 106 225 194 360 l60 91 67 -83 c36 -46 83 -103 104 -128z
m2173 113 c93 -144 200 -343 189 -354 -21 -21 -477 -139 -490 -126 -2 3 3 76
12 163 l16 158 50 61 c28 33 74 90 102 127 29 37 53 67 55 68 1 0 31 -44 66
-97z m-2519 -537 c113 -35 259 -71 386 -96 l56 -11 17 -87 c25 -127 63 -272
103 -395 19 -60 33 -110 31 -112 -2 -2 -51 -19 -109 -38 -336 -113 -586 -80
-685 89 -77 132 -73 326 13 587 28 86 39 108 52 104 9 -3 70 -21 136 -41z
m2818 -63 c86 -261 90 -455 13 -587 -99 -169 -349 -202 -685 -89 -58 19 -107
36 -109 38 -2 2 12 52 31 112 39 120 77 265 102 393 10 47 18 86 19 87 1 1 67
16 146 33 129 27 407 104 419 116 17 16 33 -10 64 -103z m-2043 -88 l154 -15
46 -39 c25 -20 82 -68 128 -104 l83 -67 -83 -53 c-94 -61 -213 -129 -306 -176
l-62 -31 -10 24 c-50 132 -136 487 -116 481 6 -2 81 -11 166 -20z m1240 -57
c-32 -144 -82 -331 -110 -404 l-10 -24 -62 31 c-93 47 -212 115 -306 176 l-83
53 83 67 c46 36 103 84 128 104 l46 39 154 15 c131 14 165 18 177 24 0 1 -7
-36 -17 -81z m-578 -342 c107 -70 384 -226 400 -226 13 0 -90 -198 -144 -278
-66 -98 -151 -180 -229 -222 -59 -32 -71 -35 -149 -35 -78 0 -90 3 -149 35
-120 65 -228 195 -329 396 l-51 101 27 12 c67 30 287 156 382 220 58 38 110
70 117 70 7 1 63 -32 125 -73z"/>
<path d="M9878 7194 c-89 -19 -148 -45 -224 -99 -160 -115 -245 -278 -246
-475 -1 -179 54 -312 181 -432 126 -121 242 -168 411 -168 169 0 285 47 411
168 127 120 182 253 181 432 -1 197 -86 360 -246 475 -78 55 -135 80 -230 100
-91 18 -149 18 -238 -1z m192 -145 c239 -38 404 -261 370 -501 -12 -82 -68
-195 -128 -254 -28 -28 -77 -62 -122 -83 -73 -35 -79 -36 -190 -36 -111 0
-117 1 -190 36 -95 45 -159 108 -205 202 -145 294 50 621 385 646 8 0 44 -4
80 -10z"/>
<path d="M9890 6869 c-55 -25 -114 -80 -143 -134 -29 -54 -31 -192 -3 -245 91
-174 322 -213 453 -78 65 68 78 100 78 198 0 98 -17 140 -82 202 -55 54 -115
78 -193 78 -44 0 -80 -7 -110 -21z m178 -143 c83 -45 80 -191 -4 -231 -68 -32
-149 -9 -177 51 -33 68 -13 148 45 180 13 8 43 13 68 13 25 0 55 -5 68 -13z"/>
<path d="M1390 3896 c0 -8 25 -55 54 -103 51 -82 135 -220 216 -354 83 -137
145 -237 176 -286 19 -28 34 -54 34 -56 0 -3 28 -49 63 -103 l62 -99 5 -280 5
-280 93 -3 92 -3 0 270 0 270 28 48 c16 26 60 98 97 158 37 61 80 130 95 155
15 25 50 82 79 128 28 46 51 86 51 89 0 3 16 27 35 53 19 26 35 51 35 54 0 6
93 160 171 281 21 33 35 63 30 68 -4 4 -48 7 -97 5 -77 -3 -90 -6 -99 -23 -5
-12 -24 -43 -41 -70 -74 -118 -163 -264 -190 -309 -16 -27 -38 -63 -49 -81
-51 -81 -182 -298 -200 -330 -18 -31 -45 -48 -45 -27 0 4 -19 38 -42 74 -40
61 -106 170 -168 274 -24 39 -50 82 -225 369 l-73 120 -96 3 c-79 2 -96 0 -96
-12z"/>
<path d="M7290 3120 l0 -790 530 0 530 0 0 80 0 80 -435 0 -435 0 0 710 0 710
-95 0 -95 0 0 -790z"/>
<path d="M13490 3120 l0 -790 89 0 c72 0 90 3 95 16 3 9 6 168 6 355 l0 339
475 0 475 0 0 -355 0 -355 90 0 90 0 0 790 0 790 -90 0 -90 0 -2 -347 -3 -348
-472 -3 -473 -2 0 327 c0 181 -3 338 -6 351 -6 21 -11 22 -95 22 l-89 0 0
-790z"/>
<path d="M3227 3519 c-74 -17 -202 -81 -255 -126 -193 -165 -258 -438 -166
-694 66 -182 213 -313 409 -364 68 -17 240 -20 300 -4 253 67 422 250 456 496
46 330 -132 605 -446 689 -56 15 -239 17 -298 3z m262 -165 c142 -42 237 -136
282 -279 58 -187 0 -396 -141 -510 -67 -53 -190 -89 -283 -83 -275 18 -441
256 -386 553 44 237 294 389 528 319z"/>
<path d="M6211 3514 c-83 -22 -168 -72 -217 -128 l-44 -51 0 93 0 92 -85 0
-85 0 0 -595 0 -595 90 0 90 0 0 318 c0 174 5 350 10 389 16 121 86 230 176
273 61 30 140 50 197 50 l47 0 0 85 0 85 -62 -1 c-35 0 -87 -7 -117 -15z"/>
<path d="M8880 3514 c-318 -83 -497 -377 -436 -714 39 -214 178 -375 386 -447
84 -29 107 -33 200 -33 176 0 313 50 426 157 123 116 184 264 184 447 0 296
-169 520 -445 591 -74 19 -241 19 -315 -1z m320 -174 c91 -35 183 -128 224
-225 28 -64 30 -80 30 -190 0 -110 -2 -126 -30 -190 -41 -97 -124 -181 -219
-220 -61 -25 -82 -29 -170 -29 -114 0 -177 20 -253 79 -127 99 -194 283 -163
447 43 222 212 362 431 355 62 -2 103 -9 150 -27z"/>
<path d="M10263 3515 c-239 -65 -400 -244 -433 -483 -25 -181 41 -374 167
-493 68 -63 102 -86 183 -119 216 -89 480 -50 634 94 28 25 52 46 54 46 3 0 2
-51 -1 -112 -8 -186 -55 -281 -171 -348 -91 -51 -302 -64 -443 -25 -71 19
-178 70 -223 106 -24 19 -44 29 -48 23 -31 -34 -82 -114 -82 -126 0 -27 110
-95 221 -138 124 -47 357 -63 516 -35 206 36 340 162 393 371 19 73 20 112 20
661 l0 583 -85 0 -85 0 0 -90 c0 -49 -3 -90 -7 -90 -5 0 -28 21 -53 46 -53 54
-148 105 -241 128 -80 20 -243 20 -316 1z m287 -156 c126 -29 250 -130 290
-236 28 -74 41 -156 34 -207 -15 -109 -72 -222 -138 -278 -45 -38 -162 -88
-228 -97 -64 -9 -157 -2 -203 15 -109 40 -177 90 -225 165 -141 219 -56 517
175 612 90 37 203 47 295 26z"/>
<path d="M11804 3515 c-139 -38 -272 -128 -346 -236 -168 -245 -125 -621 94
-813 61 -54 167 -108 253 -131 68 -17 240 -20 300 -4 253 67 421 250 456 496
27 188 -26 376 -142 511 -65 75 -188 147 -304 178 -64 18 -245 17 -311 -1z
m275 -161 c144 -42 237 -135 282 -280 58 -186 0 -396 -141 -509 -67 -53 -190
-89 -283 -83 -275 18 -441 256 -386 553 44 237 294 389 528 319z"/>
<path d="M15580 3516 c-138 -40 -230 -102 -317 -214 -29 -37 -53 -71 -53 -76
0 -5 -11 -37 -24 -70 -100 -250 -16 -563 191 -716 41 -29 102 -62 153 -81 74
-27 102 -32 210 -36 144 -6 210 6 326 62 71 34 164 112 164 137 -1 14 -81 108
-93 108 -4 0 -31 -19 -60 -43 -119 -97 -292 -131 -438 -88 -41 13 -93 33 -115
47 -46 26 -127 111 -151 158 -16 31 -43 120 -43 143 0 10 106 13 482 15 l482
3 7 26 c8 32 -6 185 -23 243 -22 77 -91 186 -153 245 -56 52 -110 85 -210 127
-54 22 -271 29 -335 10z m301 -173 c94 -37 168 -107 210 -198 16 -36 31 -83
32 -103 l2 -37 -397 -3 c-288 -2 -398 1 -398 9 0 38 36 139 66 184 77 116 184
172 332 174 68 1 95 -4 153 -26z"/>
<path d="M17035 3511 c-88 -25 -162 -69 -211 -126 l-44 -50 0 93 0 92 -85 0
-85 0 0 -595 0 -595 89 0 89 0 5 368 c2 238 8 380 16 403 17 54 84 153 124
183 48 37 139 68 220 74 l67 5 0 83 0 84 -62 -1 c-35 0 -90 -8 -123 -18z"/>
<path d="M17790 3516 c-245 -69 -395 -246 -430 -509 -24 -177 35 -376 149
-501 48 -52 149 -117 233 -148 71 -26 100 -31 208 -36 144 -5 210 7 325 63 70
33 165 113 165 137 0 14 -83 108 -95 108 -4 0 -29 -18 -56 -41 -149 -124 -384
-143 -555 -43 -89 51 -173 173 -189 272 l-7 42 481 0 c333 0 482 3 486 11 12
18 6 146 -11 225 -41 200 -202 365 -409 419 -71 18 -231 19 -295 1z m303 -174
c120 -49 233 -191 240 -300 l2 -37 -397 -3 c-250 -1 -398 1 -398 7 0 82 66
209 139 268 85 71 142 91 261 92 71 0 96 -4 153 -27z"/>
<path d="M4272 3098 l3 -423 30 -75 c22 -55 46 -91 92 -141 54 -57 74 -71 145
-99 73 -29 97 -34 199 -38 170 -6 280 30 385 130 l53 50 3 -83 3 -84 83 -3 82
-3 0 596 0 595 -85 0 -85 0 0 -317 c0 -175 -5 -345 -10 -378 -25 -157 -98
-262 -218 -311 -56 -23 -81 -28 -157 -28 -124 0 -193 26 -257 94 -80 86 -82
95 -86 548 l-3 392 -90 0 -90 0 3 -422z"/>
</g>
</svg>
